<svg xmlns="http://www.w3.org/2000/svg" viewBox="0 0 128 128" role="img" aria-label="Arquetipos">
  <defs>
    <linearGradient id="g" x1="12" y1="8" x2="116" y2="120" gradientUnits="userSpaceOnUse">
      <stop stop-color="#0f766e"/>
      <stop offset="1" stop-color="#14b8a6"/>
    </linearGradient>
  </defs>
  <rect width="128" height="128" rx="28" fill="url(#g)"/>
  <path fill="#fff" d="M64 28c-2.2 0-4.2 1.2-5.2 3.1L34.6 88.2c-.7 1.5.4 3.3 2.1 3.3h10.4c1.3 0 2.5-.8 3-2L58.4 66h11.2l8.3 23.5c.5 1.2 1.7 2 3 2h10.4c1.7 0 2.8-1.8 2.1-3.3L69.2 31.1C68.2 29.2 66.2 28 64 28zm0 18.5L70.8 58H57.2L64 46.5z"/>
</svg>
